PathFileType	4	(X/Y/Z)	SUBJ82_1_walk_RCNL2025.trc
DataRate	CameraRate	NumFrames	NumMarkers	Units	OrigDataRate	OrigDataStartFrame	OrigNumFrames
100	100	13	25	mm	100	170	226
Frame#	Time	R_Shoulder			L_Shoulder			C7			J_Notch			R_Elbow			L_Elbow			R_Wrist			L_Wrist			R_Asis			L_Asis			Sacral			Thoracic			Sternum			R_Thigh_Lateral			R_Knee_Lateral			R_Shank_Lateral			R_Ankle_Lateral			R_Heel			R_Toe			L_Thigh_Lateral			L_Knee_Lateral			L_Shank_Lateral			L_Ankle_Lateral			L_Heel			L_Toe		
		X1	Y1	Z1	X2	Y2	Z2	X3	Y3	Z3	X4	Y4	Z4	X5	Y5	Z5	X6	Y6	Z6	X7	Y7	Z7	X8	Y8	Z8	X9	Y9	Z9	X10	Y10	Z10	X11	Y11	Z11	X12	Y12	Z12	X13	Y13	Z13	X14	Y14	Z14	X15	Y15	Z15	X16	Y16	Z16	X17	Y17	Z17	X18	Y18	Z18	X19	Y19	Z19	X20	Y20	Z20	X21	Y21	Z21	X22	Y22	Z22	X23	Y23	Z23	X24	Y24	Z24	X25	Y25	Z25
170	1.69000000	1423.615845	1359.818970	4.469115	1482.450195	1391.588867	-399.107025	1392.747192	1465.311035	-196.274368	1520.903931	1354.022095	-191.688705	1297.808472	1034.959839	39.685867	1507.091919	1051.926025	-504.007996	1314.795654	774.614532	24.376437	1728.278320	920.386963	-461.270081	1514.757935	943.291443	-75.183449	1514.686890	954.686646	-343.960144	1334.187134	958.457336	-205.801178	1305.720703	1234.361328	-224.978607	1548.740601	1175.109985	-199.194504	1594.410400	535.828125	-19.316259	1630.379150	460.543274	-66.507835	1681.015747	241.933243	-7.327697	1761.227905	72.134262	-93.353218	1736.779419	30.998301	-140.852875	1901.738403	88.749397	-104.668182	1295.239014	547.825745	-393.692169	1273.869019	475.076050	-351.229492	1159.520630	271.073181	-386.933380	1049.157471	114.869698	-321.543091	1000.473572	118.667130	-273.088989	1162.665283	39.249153	-284.673615
171	1.70000000	1440.319092	1358.845337	6.603505	1499.271484	1390.877319	-397.008942	1409.358398	1464.501953	-194.061768	1537.872437	1353.600708	-189.415894	1316.535156	1033.273682	42.107292	1521.827393	1050.786011	-501.503082	1334.709839	773.007965	27.059937	1741.881287	917.063690	-459.451614	1532.801636	943.516357	-73.057907	1533.078613	953.483276	-341.825684	1352.273804	957.744385	-203.912857	1323.187866	1233.263428	-223.211334	1566.521362	1174.885864	-196.844833	1615.965698	537.690857	-17.235565	1649.990112	461.128387	-64.606651	1694.194702	240.945251	-7.538549	1767.666382	69.677032	-94.198273	1741.048828	30.559572	-142.016403	1908.265625	79.634277	-105.782951	1312.696289	547.191528	-393.033417	1291.460449	474.511749	-351.346588	1170.684937	274.562531	-387.597565	1055.793091	122.020737	-322.648651	1007.912354	128.305817	-273.908569	1163.932617	39.271091	-284.718323
172	1.71000000	1457.102417	1358.345337	8.779899	1516.194824	1390.602417	-394.884125	1426.113770	1464.225708	-191.790436	1554.934937	1353.724487	-187.074982	1335.605835	1032.002686	44.659702	1536.161377	1049.989746	-498.934479	1355.255615	771.842133	29.897985	1754.676331	913.403809	-457.716583	1550.748901	944.232971	-70.770699	1551.616821	952.666870	-339.466736	1370.313477	957.497925	-202.151382	1340.768799	1232.710571	-221.460434	1584.439331	1175.211670	-194.383850	1636.046387	539.449036	-15.320396	1668.927246	462.070465	-62.714901	1707.020630	240.785736	-7.483969	1773.286987	67.977539	-94.788330	1744.341431	30.851292	-142.866196	1913.819092	71.026070	-106.929611	1331.588135	546.352966	-392.382111	1310.558228	473.839752	-351.432281	1183.294800	278.434143	-388.223114	1063.875854	129.944275	-323.755493	1017.048340	138.872009	-274.627289	1165.540649	39.576740	-284.721375
173	1.72000000	1473.969360	1358.354614	10.969916	1533.242432	1390.790161	-392.754333	1443.010498	1464.503296	-189.498322	1572.061523	1354.402344	-184.696136	1355.012085	1031.196655	47.312538	1550.114990	1049.580566	-496.298767	1376.393799	771.166321	32.859565	1766.643127	909.449707	-456.066895	1568.473511	945.453430	-68.335075	1570.158203	952.255005	-336.911530	1388.199463	957.717102	-200.575836	1358.403320	1232.740723	-219.765747	1602.389526	1176.071655	-191.853882	1654.762573	541.184143	-13.473536	1687.236938	463.412811	-60.814598	1719.624268	241.457932	-6.973458	1778.163940	67.004036	-95.129005	1746.876221	31.686302	-143.337616	1918.436646	63.399220	-108.082397	1352.075195	545.233887	-391.771545	1331.318848	472.978424	-351.485199	1197.592041	282.640350	-388.787781	1073.597168	138.647263	-324.846619	1028.057007	150.306686	-275.245117	1167.707642	40.375397	-284.731354
174	1.73000000	1490.921509	1358.902466	13.143749	1550.432495	1391.458740	-390.636932	1460.023804	1465.319214	-187.234009	1589.218628	1355.607422	-182.317352	1374.733032	1030.898315	50.037430	1563.713501	1049.604492	-493.589966	1398.096985	771.028564	35.920396	1777.758362	905.251160	-454.500015	1585.881104	947.174194	-65.774979	1588.563232	952.245972	-334.202881	1405.847046	958.376953	-199.241806	1376.024414	1233.351074	-218.154572	1620.259399	1177.415649	-189.307693	1672.419312	542.990356	-11.584872	1704.892090	465.082611	-58.908466	1732.039917	242.715820	-5.946501	1782.281494	66.608673	-95.307465	1748.808594	32.832531	-143.501053	1922.124268	57.067978	-109.202545	1374.265747	543.777710	-391.232880	1353.843872	471.847534	-351.510620	1213.773682	287.117676	-389.267395	1085.115234	148.096603	-325.892181	1041.058716	162.489746	-275.757690	1170.753052	41.915871	-284.829071
175	1.74000000	1507.958984	1359.998413	15.271733	1567.769531	1392.611938	-388.542419	1477.106689	1466.626221	-185.046402	1606.373413	1357.273926	-179.981750	1394.731201	1031.130981	52.813240	1576.987305	1050.097046	-490.804169	1420.339050	771.459045	39.057959	1788.001282	900.862183	-453.008453	1602.919678	949.364624	-63.127377	1606.715454	952.621948	-331.395721	1423.197388	959.432312	-198.174210	1393.562012	1234.506348	-216.630371	1637.948242	1179.163208	-186.807739	1689.295776	544.880859	-9.595687	1721.702271	466.886322	-57.031628	1744.166748	244.148758	-4.518343	1785.640625	66.614563	-95.425743	1750.260132	34.085892	-143.487137	1924.946899	52.156918	-110.247231	1398.188843	541.961975	-390.780243	1378.156128	470.393127	-351.508087	1231.959351	291.797577	-389.628479	1098.555176	158.201447	-326.844269	1056.119873	175.225266	-276.144287	1175.103882	44.438011	-285.115692
176	1.75000000	1525.085083	1361.624268	17.325659	1585.230225	1394.233643	-386.477417	1494.202515	1468.363159	-182.973999	1623.494873	1359.310791	-177.735153	1414.955078	1031.890015	55.630196	1589.969360	1051.074097	-487.944366	1443.081665	772.456543	42.245719	1797.360840	896.337463	-451.581314	1619.580200	951.966064	-60.440437	1624.534424	953.359619	-328.552704	1440.217529	960.829834	-197.351410	1410.948975	1236.156738	-215.171844	1655.380005	1181.220337	-184.424072	1705.409912	546.752502	-7.541115	1737.329956	468.582336	-55.239265	1755.686523	245.380157	-2.918767	1788.286743	66.855759	-95.552895	1751.323853	35.292610	-143.411194	1927.021240	48.614372	-111.188622	1423.770142	539.818054	-390.394836	1404.186157	468.619843	-351.463837	1252.180542	296.618896	-389.824097	1114.012085	168.799408	-327.637451	1073.263428	188.232880	-276.357117	1181.271240	48.095219	-285.690704
177	1.76000000	1542.309204	1363.733032	19.279100	1602.754272	1396.288086	-384.451385	1511.259155	1470.475464	-181.039078	1640.552368	1361.626343	-175.624313	1435.349609	1033.141235	58.488873	1602.693481	1052.525146	-485.023895	1466.269592	773.986298	45.451811	1805.840088	891.729736	-450.206161	1635.887207	954.901794	-57.767830	1641.979248	954.441101	-325.738342	1456.898438	962.522400	-196.706070	1428.128418	1238.250000	-213.741714	1672.504883	1183.501709	-182.227890	1720.468872	548.448669	-5.533664	1751.406982	469.978821	-53.582436	1766.077881	246.227676	-1.374810	1790.286865	67.193352	-95.713951	1752.066650	36.347977	-143.336807	1928.474731	46.257683	-112.016235	1450.812378	537.453125	-390.015320	1431.768799	466.619202	-351.347473	1274.387573	301.538147	-389.799500	1131.547607	179.652939	-328.195618	1092.476196	201.153687	-276.320038	1189.804077	52.888882	-286.623657
178	1.77000000	1559.643677	1366.256226	21.107607	1620.246460	1398.722534	-382.483398	1528.236084	1472.927368	-179.246414	1657.513672	1364.150269	-173.694199	1455.867065	1034.828125	61.394978	1615.193848	1054.412476	-482.066711	1489.836426	775.990631	48.642204	1813.458252	887.091156	-448.871002	1651.883545	958.089783	-55.162178	1659.042847	955.860840	-323.013611	1473.249268	964.480225	-196.141998	1445.061035	1240.735596	-212.299667	1689.298950	1185.948364	-180.281052	1734.063599	549.864014	-3.697824	1763.668579	470.990967	-52.092144	1774.811646	246.704788	-0.027895	1791.719116	67.530510	-95.898750	1752.540894	37.196442	-143.280869	1929.427002	44.836269	-112.722534	1478.992798	535.060913	-389.541992	1460.651489	464.579071	-351.110565	1298.456177	306.531647	-389.506622	1151.179810	190.460022	-328.443909	1113.704712	213.577682	-275.944946	1201.228394	58.654930	-287.923492
179	1.78000000	1577.095093	1369.118530	22.790762	1637.589355	1401.477173	-380.603729	1545.100220	1475.697632	-177.586563	1674.343872	1366.846680	-171.982925	1476.475708	1036.884888	64.354103	1627.502075	1056.678711	-479.102814	1513.716248	778.407166	51.786654	1820.248840	882.476074	-447.566803	1667.613159	961.450745	-52.669621	1675.741089	957.625427	-320.430847	1489.292358	966.697937	-195.560257	1461.728760	1243.566162	-210.814087	1705.761108	1188.534668	-178.625046	1745.931396	550.998962	-2.107559	1774.031250	471.641083	-50.777451	1781.598511	246.912552	1.077997	1792.674927	67.814957	-96.078400	1752.794800	37.828949	-143.232330	1929.988159	44.089901	-113.295036	1507.891846	532.902954	-388.854279	1490.514160	462.766388	-350.689789	1324.190308	311.587860	-388.915375	1172.879639	200.878189	-328.324646	1136.853516	225.089584	-275.164215	1215.976440	65.095528	-289.511932
180	1.79000000	1594.652832	1372.254517	24.314798	1654.659790	1404.493164	-378.850800	1561.821045	1478.765625	-176.045029	1691.007935	1369.713501	-170.515045	1497.163330	1039.250244	67.368584	1639.644287	1059.256958	-476.161682	1537.858032	781.186798	54.866285	1826.256775	877.943573	-446.289291	1683.109375	964.911072	-50.323647	1692.100220	959.748108	-318.028717	1505.059448	969.194580	-194.884674	1478.134399	1246.698608	-209.269669	1721.909912	1191.265625	-177.274658	1756.082520	551.931458	-0.768041	1782.599365	472.020782	-49.633236	1786.491577	246.951981	1.964898	1793.252075	68.028786	-96.223671	1752.875488	38.268055	-143.164536	1930.259155	43.787498	-113.723747	1537.054077	531.255676	-387.835938	1521.005615	461.483704	-350.017792	1351.341187	316.691742	-388.014923	1196.582764	210.553101	-327.812012	1161.792725	235.318344	-273.962189	1234.314697	71.823807	-291.211914
181	1.80000000	1612.279663	1375.618896	25.673470	1671.345093	1407.718262	-377.266388	1578.368774	1482.102295	-174.611481	1707.475830	1372.769165	-169.296936	1517.935059	1041.877441	70.435730	1651.637085	1062.079834	-473.268280	1562.238037	784.303986	57.879417	1831.535706	873.559509	-445.039932	1698.391357	968.404724	-48.138142	1708.150269	962.240662	-315.826874	1520.590698	972.005981	-194.077255	1494.295410	1250.091553	-207.668762	1737.779541	1194.165894	-176.216827	1764.753906	552.755737	0.358615	1789.616211	472.243622	-48.650620	1789.795288	246.914108	2.681981	1793.543579	68.175995	-96.318611	1752.827515	38.547707	-143.047882	1930.330566	43.746761	-114.009064	1566.063965	530.346741	-386.400665	1551.788086	461.010956	-349.040253	1379.648071	321.805389	-386.812592	1222.206665	219.142365	-326.916229	1188.370605	243.971954	-272.386292	1256.303589	78.409439	-292.762878
182	1.81000000	1629.908203	1379.187134	26.868385	1687.557373	1411.105957	-375.889191	1594.718140	1485.666992	-173.283493	1723.727905	1376.033691	-168.315948	1538.803467	1044.735840	73.546471	1663.485107	1065.085571	-470.443970	1586.859070	787.755188	60.838884	1836.147888	869.397125	-443.825928	1713.467407	971.872986	-46.103069	1723.932129	965.108398	-313.815735	1535.933105	975.169128	-193.141388	1510.238647	1253.699219	-206.025009	1753.413574	1197.263184	-175.412872	1772.278687	553.542175	1.316221	1795.390015	472.412079	-47.821991	1791.903076	246.891617	3.274394	1793.627075	68.270004	-96.363701	1752.692993	38.703236	-142.868118	1930.279175	43.838615	-114.160538	1594.607178	530.310059	-384.512299	1582.576660	461.546539	-347.731812	1408.885864	326.849518	-385.336884	1249.650146	226.336960	-325.671539	1216.422485	250.848679	-270.525696	1281.815552	84.431725	-293.871826
